<svg xmlns="http://www.w3.org/2000/svg" xmlns:xlink="http://www.w3.org/1999/xlink" width="1280" zoomAndPan="magnify" viewBox="0 0 960 959.999988" height="1280" preserveAspectRatio="xMidYMid meet" version="1.0"><defs><clipPath id="479af198a7"><path d="M 254.410156 426.269531 L 262.914062 426.269531 L 262.914062 441.722656 L 254.410156 441.722656 Z M 254.410156 426.269531 " clip-rule="nonzero"/></clipPath><clipPath id="05870e9a23"><path d="M 0.410156 0.269531 L 8.914062 0.269531 L 8.914062 15.722656 L 0.410156 15.722656 Z M 0.410156 0.269531 " clip-rule="nonzero"/></clipPath><clipPath id="e9ef35d985"><rect x="0" width="9" y="0" height="16"/></clipPath></defs><g clip-path="url(#479af198a7)"><g transform="matrix(1, 0, 0, 1, 254, 426)"><g clip-path="url(#e9ef35d985)"><g clip-path="url(#05870e9a23)"><path fill="#32aafc" d="M 0.410156 0.269531 L 8.914062 0.269531 L 8.914062 15.722656 L 0.410156 15.722656 Z M 0.410156 0.269531 " fill-opacity="1" fill-rule="nonzero"/></g></g></g></g><path fill="#01005d" d="M 168.457031 650.636719 C 170.371094 626.203125 217.09375 504.667969 228.6875 470.550781 C 246.515625 418.042969 281.453125 339.820312 286.554688 286.785156 L 380.636719 288.101562 C 387.464844 297.898438 508.789062 633.296875 511.457031 652.738281 L 430.023438 651.613281 L 400.710938 565.210938 L 270.90625 565.734375 L 241.9375 652.25 Z M 754.554688 636.222656 C 692.449219 660.734375 610.453125 660.019531 568.269531 618.65625 C 523.050781 574.332031 514.230469 497.199219 540.277344 436.921875 C 592.890625 315.085938 808.21875 341.886719 778.535156 523.699219 L 603.621094 523.058594 C 619.832031 613.554688 722.921875 577.746094 755.15625 577.707031 Z M 903.464844 761.246094 C 910.40625 707.800781 904.851562 613.027344 904.890625 554.8125 C 904.890625 484.738281 904.851562 414.664062 904.890625 344.625 C 904.890625 284.121094 913.597656 201.511719 889.128906 151.441406 C 869.203125 110.640625 827.472656 71.308594 763.375 66.878906 C 691.960938 62 435.199219 66.539062 343.109375 66.503906 C 285.691406 66.503906 192.097656 59.445312 145.527344 79.488281 C 101.921875 98.257812 64.730469 141.195312 57 197.34375 C 51.785156 235.289062 55.464844 548.734375 55.5 614.867188 C 55.539062 675.785156 46.269531 757.871094 70.8125 808.164062 C 91.414062 850.351562 134.796875 888.972656 196.566406 893.363281 C 265.992188 898.320312 526.617188 893.851562 617.054688 893.851562 C 672.785156 893.851562 770.316406 901.058594 815.726562 880.980469 C 856.96875 862.773438 896.410156 815.707031 903.464844 761.246094 Z M 903.464844 761.246094 " fill-opacity="1" fill-rule="evenodd"/><path fill="#9c9bfc" d="M 335.601562 359.414062 L 379.058594 495.359375 L 291.847656 495.511719 C 296.613281 479.519531 326.632812 372.0625 335.601562 359.414062 Z M 168.457031 650.636719 L 241.933594 652.25 L 270.90625 565.734375 L 400.710938 565.210938 L 430.019531 651.613281 L 511.457031 652.738281 C 508.789062 633.296875 387.464844 297.898438 380.636719 288.101562 L 286.554688 286.785156 C 281.453125 339.820312 246.515625 418.042969 228.6875 470.550781 C 217.09375 504.667969 170.371094 626.203125 168.457031 650.636719 Z M 168.457031 650.636719 " fill-opacity="1" fill-rule="evenodd"/><path fill="#9c9bfc" d="M 707.347656 471.488281 L 604.484375 471.1875 C 604.296875 410.234375 702.917969 396.683594 707.347656 471.488281 Z M 754.554688 636.222656 L 755.15625 577.707031 C 722.921875 577.746094 619.832031 613.554688 603.621094 523.058594 L 778.535156 523.699219 C 808.21875 341.886719 592.890625 315.085938 540.277344 436.921875 C 514.234375 497.199219 523.050781 574.332031 568.269531 618.65625 C 610.453125 660.019531 692.449219 660.734375 754.554688 636.222656 Z M 754.554688 636.222656 " fill-opacity="1" fill-rule="evenodd"/><path fill="#010059" d="M 335.601562 359.414062 C 326.632812 372.0625 296.613281 479.519531 291.847656 495.511719 L 379.058594 495.359375 Z M 335.601562 359.414062 " fill-opacity="1" fill-rule="evenodd"/><path fill="#01025a" d="M 707.347656 471.488281 C 702.917969 396.683594 604.296875 410.234375 604.484375 471.1875 Z M 707.347656 471.488281 " fill-opacity="1" fill-rule="evenodd"/></svg>