<svg xmlns="http://www.w3.org/2000/svg" xmlns:xlink="http://www.w3.org/1999/xlink" width="1080" zoomAndPan="magnify" viewBox="0 0 810 809.999993" height="1080" preserveAspectRatio="xMidYMid meet" version="1.0"><defs><clipPath id="3d24a49d7d"><path d="M 78.140625 79.328125 L 732 79.328125 L 732 730.328125 L 78.140625 730.328125 Z M 78.140625 79.328125 " clip-rule="nonzero"/></clipPath></defs><g clip-path="url(#3d24a49d7d)"><path fill="#fffc00" d="M 731.929688 406.230469 C 731.929688 225.675781 585.582031 79.328125 405.058594 79.328125 C 224.53125 79.328125 78.15625 225.675781 78.15625 406.230469 C 78.15625 559.53125 183.691406 688.183594 326.074219 723.507812 L 326.074219 506.132812 L 258.652344 506.132812 L 258.652344 406.230469 L 326.074219 406.230469 L 326.074219 363.1875 C 326.074219 251.933594 376.421875 200.355469 485.652344 200.355469 C 506.367188 200.355469 542.101562 204.402344 556.714844 208.480469 L 556.714844 299.023438 C 548.996094 298.203125 535.589844 297.789062 518.953125 297.789062 C 465.351562 297.789062 444.636719 318.09375 444.636719 370.875 L 444.636719 406.199219 L 551.402344 406.199219 L 533.066406 506.101562 L 444.636719 506.101562 L 444.636719 730.695312 C 606.503906 711.15625 731.929688 573.320312 731.929688 406.199219 Z M 731.929688 406.230469 " fill-opacity="1" fill-rule="nonzero"/></g></svg>