<svg xmlns="http://www.w3.org/2000/svg" xmlns:xlink="http://www.w3.org/1999/xlink" width="1280" zoomAndPan="magnify" viewBox="0 0 960 959.999988" height="1280" preserveAspectRatio="xMidYMid meet" version="1.0"><defs><clipPath id="9f66f2c777"><path d="M 254.410156 426.269531 L 262.914062 426.269531 L 262.914062 441.722656 L 254.410156 441.722656 Z M 254.410156 426.269531 " clip-rule="nonzero"/></clipPath><clipPath id="a49d3ec7dc"><path d="M 0.410156 0.269531 L 8.914062 0.269531 L 8.914062 15.722656 L 0.410156 15.722656 Z M 0.410156 0.269531 " clip-rule="nonzero"/></clipPath><clipPath id="29c8703cb4"><rect x="0" width="9" y="0" height="16"/></clipPath><clipPath id="6190f9054a"><path d="M 120.382812 71 L 839.632812 71 L 839.632812 888 L 120.382812 888 Z M 120.382812 71 " clip-rule="nonzero"/></clipPath></defs><g clip-path="url(#9f66f2c777)"><g transform="matrix(1, 0, 0, 1, 254, 426)"><g clip-path="url(#29c8703cb4)"><g clip-path="url(#a49d3ec7dc)"><path fill="#985df6" d="M 0.410156 0.269531 L 8.914062 0.269531 L 8.914062 15.722656 L 0.410156 15.722656 Z M 0.410156 0.269531 " fill-opacity="1" fill-rule="nonzero"/></g></g></g></g><g clip-path="url(#6190f9054a)"><path fill="#e44d26" d="M 185.679688 806.328125 L 120.179688 71.953125 L 839.839844 71.953125 L 774.289062 806.226562 L 479.550781 887.871094 Z M 185.679688 806.328125 " fill-opacity="1" fill-rule="nonzero"/></g><path fill="#f16529" d="M 718.152344 759.464844 L 774.1875 132 L 480.007812 132 L 480.007812 825.476562 Z M 718.152344 759.464844 " fill-opacity="1" fill-rule="nonzero"/><path fill="#ebebeb" d="M 479.703125 222.0625 L 254.082031 222.0625 L 278.390625 494.433594 L 480.007812 494.433594 L 480.007812 404.375 L 360.796875 404.375 L 352.558594 312.148438 L 480.007812 312.148438 L 480.007812 222.0625 Z M 480.007812 637.988281 L 479.625 638.089844 L 379.289062 611.011719 L 372.914062 539.183594 L 282.417969 539.183594 L 295.042969 680.597656 L 479.601562 731.59375 L 480.007812 731.464844 Z M 480.007812 637.988281 " fill-opacity="1" fill-rule="nonzero"/><path fill="#ffffff" d="M 479.703125 494.433594 L 590.652344 494.433594 L 580.449219 611.214844 L 479.957031 638.320312 L 479.957031 732.027344 L 664.667969 680.851562 L 689.40625 404.324219 L 480.007812 404.324219 Z M 703.230469 246.234375 L 705.375 222.0625 L 479.652344 222.0625 L 479.652344 312.121094 L 697.261719 312.121094 L 699.046875 291.875 Z M 703.230469 246.234375 " fill-opacity="1" fill-rule="nonzero"/></svg>