<svg xmlns="http://www.w3.org/2000/svg" xmlns:xlink="http://www.w3.org/1999/xlink" width="1280" zoomAndPan="magnify" viewBox="0 0 960 959.999988" height="1280" preserveAspectRatio="xMidYMid meet" version="1.0"><defs><clipPath id="9ac6e60eca"><path d="M 254.410156 426.269531 L 262.914062 426.269531 L 262.914062 441.722656 L 254.410156 441.722656 Z M 254.410156 426.269531 " clip-rule="nonzero"/></clipPath><clipPath id="c223f2e868"><path d="M 0.410156 0.269531 L 8.914062 0.269531 L 8.914062 15.722656 L 0.410156 15.722656 Z M 0.410156 0.269531 " clip-rule="nonzero"/></clipPath><clipPath id="45a1822fc7"><rect x="0" width="9" y="0" height="16"/></clipPath></defs><g clip-path="url(#9ac6e60eca)"><g transform="matrix(1, 0, 0, 1, 254, 426)"><g clip-path="url(#45a1822fc7)"><g clip-path="url(#c223f2e868)"><path fill="#32aafc" d="M 0.410156 0.269531 L 8.914062 0.269531 L 8.914062 15.722656 L 0.410156 15.722656 Z M 0.410156 0.269531 " fill-opacity="1" fill-rule="nonzero"/></g></g></g></g><path fill="#2d0402" d="M 636.070312 407.203125 L 713.035156 407.203125 L 713.144531 691.8125 L 634.71875 690.347656 Z M 242.40625 692.414062 C 250.09375 654.65625 293.675781 549.300781 308.71875 503.960938 C 330.320312 438.878906 355.148438 388.886719 367.9375 316.410156 L 466.730469 316.488281 L 600.066406 691.472656 L 514.175781 691.511719 L 484.132812 601.472656 L 352.710938 601.996094 L 324.394531 691.664062 Z M 658.3125 292.617188 C 684.152344 282.519531 707.109375 295.054688 714.722656 314.195312 C 724.511719 338.855469 712.507812 365.652344 692.480469 374.25 C 637.722656 397.707031 599.203125 315.699219 658.3125 292.617188 Z M 902.101562 777.234375 C 908.367188 738.691406 904.277344 426.71875 904.277344 360.625 C 904.277344 302.335938 912.378906 212.859375 890.851562 164.066406 C 872.171875 121.804688 827.464844 82.132812 769.03125 75.601562 C 728.824219 71.136719 417.371094 74.476562 349.261719 74.589844 C 245.96875 74.703125 85.441406 47.828125 57.949219 200.324219 C 51.085938 238.34375 55.4375 553.65625 55.4375 619.597656 C 55.4375 681.265625 46.886719 763.6875 69.800781 816.53125 C 88.066406 858.644531 133.261719 898.804688 192.296875 903.757812 C 249.082031 908.5625 531.203125 904.585938 611.804688 904.507812 C 665.550781 904.472656 766.59375 912.617188 810.210938 893.398438 C 854.542969 873.921875 892.726562 834.960938 902.101562 777.234375 Z M 902.101562 777.234375 " fill-opacity="1" fill-rule="evenodd"/><path fill="#fa9a08" d="M 418.046875 387.875 L 459.867188 528.207031 L 374.800781 527.570312 Z M 242.40625 692.414062 L 324.394531 691.660156 L 352.710938 601.996094 L 484.132812 601.472656 L 514.175781 691.511719 L 600.066406 691.472656 L 466.730469 316.484375 L 367.9375 316.410156 C 355.148438 388.886719 330.320312 438.878906 308.71875 503.960938 C 293.675781 549.300781 250.09375 654.65625 242.40625 692.414062 Z M 242.40625 692.414062 " fill-opacity="1" fill-rule="evenodd"/><path fill="#fe9a01" d="M 645.484375 414.746094 C 636.445312 455.019531 644.546875 621.703125 640.644531 683.367188 C 659.175781 686.03125 685.917969 687.644531 703.65625 682.316406 C 707.480469 660.734375 706.582031 431.074219 701.855469 415.535156 Z M 645.484375 414.746094 " fill-opacity="1" fill-rule="evenodd"/><path fill="#fa9a08" d="M 658.3125 292.617188 C 599.203125 315.699219 637.722656 397.707031 692.480469 374.25 C 712.507812 365.652344 724.511719 338.855469 714.722656 314.195312 C 707.105469 295.054688 684.152344 282.519531 658.3125 292.617188 Z M 658.3125 292.617188 " fill-opacity="1" fill-rule="evenodd"/><path fill="#2d0402" d="M 374.800781 527.570312 L 459.867188 528.207031 L 418.046875 387.875 Z M 374.800781 527.570312 " fill-opacity="1" fill-rule="evenodd"/><path fill="#f7a627" d="M 645.484375 414.746094 L 701.855469 415.535156 C 706.582031 431.074219 707.480469 660.734375 703.65625 682.316406 C 685.917969 687.644531 659.175781 686.03125 640.648438 683.367188 C 644.546875 621.703125 636.445312 455.019531 645.484375 414.746094 Z M 634.71875 690.347656 L 713.144531 691.8125 L 713.035156 407.203125 L 636.070312 407.203125 Z M 634.71875 690.347656 " fill-opacity="1" fill-rule="evenodd"/></svg>