<svg xmlns="http://www.w3.org/2000/svg" xmlns:xlink="http://www.w3.org/1999/xlink" width="1080" zoomAndPan="magnify" viewBox="0 0 810 809.999993" height="1080" preserveAspectRatio="xMidYMid meet" version="1.0"><defs><clipPath id="cfef947f34"><path d="M 65.632812 65.632812 L 744.382812 65.632812 L 744.382812 744.382812 L 65.632812 744.382812 Z M 65.632812 65.632812 " clip-rule="nonzero"/></clipPath></defs><g clip-path="url(#cfef947f34)"><path fill="#fffc00" d="M 264.359375 67.96875 C 228.265625 69.664062 203.617188 75.449219 182.070312 83.890625 C 159.753906 92.585938 140.859375 104.222656 122.0625 123.117188 C 103.230469 142.011719 91.65625 160.9375 83.058594 183.285156 C 74.714844 204.898438 69.054688 229.546875 67.457031 265.671875 C 65.859375 301.828125 65.507812 313.371094 65.667969 405.507812 C 65.828125 497.617188 66.242188 509.1875 67.96875 545.378906 C 69.695312 581.472656 75.449219 606.089844 83.890625 627.671875 C 92.585938 649.984375 104.222656 668.847656 123.117188 687.679688 C 142.011719 706.507812 160.9375 718.050781 183.285156 726.679688 C 204.863281 735.027344 229.546875 740.714844 265.640625 742.28125 C 301.828125 743.882812 313.371094 744.234375 405.476562 744.042969 C 497.617188 743.882812 509.15625 743.464844 545.347656 741.738281 C 581.441406 740.011719 606.058594 734.226562 627.636719 725.820312 C 649.953125 717.089844 668.847656 705.484375 687.644531 686.589844 C 706.445312 667.695312 718.019531 648.769531 726.648438 626.421875 C 734.992188 604.84375 740.683594 580.164062 742.25 544.101562 C 743.816406 507.910156 744.203125 496.335938 744.042969 404.230469 C 743.882812 312.125 743.433594 300.582031 741.738281 264.394531 C 740.011719 228.265625 734.257812 203.648438 725.820312 182.070312 C 717.089844 159.753906 705.484375 140.890625 686.589844 122.0625 C 667.695312 103.261719 648.769531 91.660156 626.421875 83.058594 C 604.84375 74.714844 580.164062 69.023438 544.066406 67.457031 C 507.878906 65.859375 496.304688 65.507812 404.199219 65.667969 C 312.09375 65.828125 300.550781 66.242188 264.359375 67.96875 M 268.324219 681.1875 C 235.269531 679.75 217.300781 674.25 205.3125 669.648438 C 189.453125 663.507812 178.167969 656.15625 166.246094 644.359375 C 154.351562 632.496094 147 621.210938 140.796875 605.417969 C 136.160156 593.460938 130.566406 575.527344 129 542.4375 C 127.304688 506.695312 126.921875 495.953125 126.761719 405.382812 C 126.601562 314.84375 126.921875 304.101562 128.488281 268.324219 C 129.894531 235.269531 135.425781 217.300781 140.027344 205.34375 C 146.167969 189.488281 153.488281 178.203125 165.316406 166.277344 C 177.179688 154.382812 188.464844 147.03125 204.289062 140.828125 C 216.246094 136.160156 234.179688 130.597656 267.238281 129.03125 C 303.011719 127.335938 313.722656 126.984375 404.292969 126.792969 C 494.867188 126.601562 505.609375 126.921875 541.382812 128.519531 C 574.441406 129.957031 592.40625 135.425781 604.363281 140.0625 C 620.222656 146.199219 631.539062 153.488281 643.429688 165.347656 C 655.324219 177.210938 662.710938 188.464844 668.878906 204.320312 C 673.546875 216.246094 679.109375 234.214844 680.675781 267.238281 C 682.371094 303.011719 682.753906 313.753906 682.914062 404.292969 C 683.074219 494.867188 682.753906 505.609375 681.1875 541.351562 C 679.75 574.40625 674.25 592.40625 669.648438 604.363281 C 663.507812 620.1875 656.1875 631.507812 644.328125 643.398438 C 632.464844 655.261719 621.210938 662.644531 605.355469 668.847656 C 593.429688 673.515625 575.460938 679.078125 542.4375 680.644531 C 506.664062 682.339844 495.953125 682.722656 405.347656 682.882812 C 314.808594 683.042969 304.066406 682.722656 268.292969 681.15625 M 544.867188 223.535156 C 544.898438 246.011719 563.1875 264.203125 585.628906 264.136719 C 608.105469 264.105469 626.296875 245.851562 626.261719 223.375 C 626.230469 200.898438 607.945312 182.710938 585.46875 182.742188 C 562.996094 182.773438 544.804688 201.058594 544.835938 223.503906 M 230.664062 405.191406 C 230.855469 501.386719 308.992188 579.203125 405.15625 579.011719 C 501.355469 578.820312 579.203125 500.714844 579.011719 404.519531 C 578.820312 308.351562 500.683594 230.503906 404.484375 230.664062 C 308.320312 230.855469 230.472656 308.992188 230.664062 405.191406 M 291.757812 405.0625 C 291.664062 342.625 342.175781 291.886719 404.613281 291.792969 C 467.050781 291.664062 517.789062 342.175781 517.917969 404.644531 C 518.042969 467.082031 467.5 517.820312 405.0625 517.917969 C 342.625 518.042969 291.886719 467.5 291.792969 405.0625 " fill-opacity="1" fill-rule="nonzero"/></g></svg>