<svg xmlns="http://www.w3.org/2000/svg" xmlns:xlink="http://www.w3.org/1999/xlink" width="1080" zoomAndPan="magnify" viewBox="0 0 810 809.999993" height="1080" preserveAspectRatio="xMidYMid meet" version="1.0"><defs><clipPath id="bd9ac2b5e7"><path d="M 36.789062 35 L 771 35 L 771 770 L 36.789062 770 Z M 36.789062 35 " clip-rule="nonzero"/></clipPath></defs><g clip-path="url(#bd9ac2b5e7)"><path fill="#fffc00" d="M 662.144531 660.890625 L 553.382812 660.890625 L 553.382812 490.582031 C 553.382812 449.96875 552.65625 397.699219 496.820312 397.699219 C 440.984375 397.699219 431.507812 441.945312 431.507812 487.644531 L 431.507812 660.890625 L 322.742188 660.890625 L 322.742188 310.660156 L 427.148438 310.660156 L 427.148438 358.539062 L 428.601562 358.539062 C 449.875 322.144531 489.484375 300.386719 531.621094 301.976562 C 641.839844 301.976562 662.179688 374.484375 662.179688 468.789062 L 662.179688 660.925781 Z M 200.070312 262.78125 C 165.199219 262.78125 136.972656 234.550781 136.9375 199.683594 C 136.902344 164.8125 165.167969 136.582031 200.035156 136.546875 C 234.90625 136.546875 263.136719 164.777344 263.171875 199.648438 C 263.207031 234.519531 234.941406 262.746094 200.070312 262.78125 M 254.453125 660.890625 L 145.585938 660.890625 L 145.585938 310.660156 L 254.453125 310.660156 Z M 716.355469 35.566406 L 90.960938 35.566406 C 61.382812 35.253906 37.132812 58.917969 36.789062 88.496094 L 36.789062 716.519531 C 37.132812 746.097656 61.382812 769.792969 90.960938 769.480469 L 716.390625 769.480469 C 746.035156 769.863281 770.355469 746.164062 770.769531 716.519531 L 770.769531 88.425781 C 770.320312 58.8125 746 35.152344 716.355469 35.53125 " fill-opacity="1" fill-rule="nonzero"/></g></svg>