<svg xmlns="http://www.w3.org/2000/svg" xmlns:xlink="http://www.w3.org/1999/xlink" width="1280" zoomAndPan="magnify" viewBox="0 0 960 959.999988" height="1280" preserveAspectRatio="xMidYMid meet" version="1.0"><defs><clipPath id="cdc9316b9c"><path d="M 254.410156 426.269531 L 262.914062 426.269531 L 262.914062 441.722656 L 254.410156 441.722656 Z M 254.410156 426.269531 " clip-rule="nonzero"/></clipPath><clipPath id="7024319330"><path d="M 0.410156 0.269531 L 8.914062 0.269531 L 8.914062 15.722656 L 0.410156 15.722656 Z M 0.410156 0.269531 " clip-rule="nonzero"/></clipPath><clipPath id="dd6942a945"><rect x="0" width="9" y="0" height="16"/></clipPath></defs><path fill="#001e36" d="M 542.742188 575.78125 C 561.84375 574.558594 591.902344 587.96875 615.5 590.417969 C 638.984375 592.871094 678.890625 588.265625 662.652344 561.777344 C 649.574219 540.414062 584.695312 535.214844 554.707031 494.683594 C 523.570312 452.628906 548.132812 393.113281 583.878906 376.320312 C 640.582031 349.757812 675.285156 362.761719 728.867188 375.691406 L 727.863281 444.902344 C 696.761719 431.9375 648.902344 410.796875 619.363281 436.652344 C 619.511719 462.660156 631.773438 463.476562 654.921875 472.394531 C 702.523438 490.746094 764.984375 524.996094 738.195312 593.835938 C 726.527344 623.855469 696.6875 646.589844 656.113281 653.128906 C 623.824219 658.367188 566.671875 653.203125 542.894531 636.003906 Z M 240.503906 280.992188 C 273.535156 278.023438 383.375 277.5 411.726562 284.261719 C 488.863281 302.691406 548.132812 414.734375 461.035156 498.734375 C 420.308594 537.964844 382.855469 528.636719 318.644531 531.351562 L 317.34375 644.992188 L 240.835938 643.917969 Z M 49.214844 757.1875 C 55.976562 818.039062 92.613281 855.824219 135.382812 876.886719 C 179.265625 898.507812 274.949219 890.59375 329.382812 890.59375 C 463.636719 890.59375 613.195312 896.835938 745.550781 890.519531 C 808.535156 887.511719 851.824219 850.140625 872.632812 809.90625 C 897.339844 762.09375 889.390625 679.804688 889.390625 619.730469 C 889.390625 550.371094 889.390625 481.050781 889.390625 411.6875 C 889.390625 281.03125 919.523438 136.851562 802.328125 83.390625 C 754.433594 61.582031 667.222656 68.9375 608.066406 68.9375 C 512.871094 68.9375 268.183594 64.40625 191.714844 69.347656 C 130.292969 73.285156 86.1875 109.136719 64.707031 150.855469 C 40.148438 198.519531 48.324219 283 48.324219 341.101562 C 48.324219 410.464844 48.324219 479.785156 48.324219 549.144531 C 48.324219 609.367188 42.898438 700.644531 49.214844 757.1875 Z M 49.214844 757.1875 " fill-opacity="1" fill-rule="evenodd"/><path fill="#32aafc" d="M 318.941406 463.476562 L 318.273438 347.457031 C 340.828125 346.191406 377.652344 343.851562 395.859375 352.621094 C 429.414062 368.816406 473.703125 475.105469 318.941406 463.476562 Z M 240.835938 643.917969 L 317.34375 644.992188 L 318.644531 531.351562 C 382.855469 528.636719 420.308594 537.964844 461.035156 498.734375 C 548.132812 414.734375 488.867188 302.691406 411.726562 284.261719 C 383.375 277.5 273.535156 278.023438 240.503906 280.992188 Z M 240.835938 643.917969 " fill-opacity="1" fill-rule="evenodd"/><path fill="#36a8f6" d="M 542.742188 575.78125 L 542.894531 636.003906 C 566.671875 653.203125 623.824219 658.367188 656.113281 653.128906 C 696.6875 646.589844 726.527344 623.855469 738.195312 593.835938 C 764.984375 524.996094 702.523438 490.746094 654.921875 472.394531 C 631.773438 463.476562 619.511719 462.660156 619.363281 436.652344 C 648.902344 410.796875 696.761719 431.9375 727.863281 444.902344 L 728.867188 375.691406 C 675.285156 362.761719 640.582031 349.757812 583.878906 376.320312 C 548.132812 393.113281 523.570312 452.628906 554.707031 494.683594 C 584.695312 535.214844 649.574219 540.414062 662.652344 561.777344 C 678.890625 588.265625 638.984375 592.871094 615.5 590.417969 C 591.902344 587.96875 561.84375 574.554688 542.742188 575.78125 Z M 542.742188 575.78125 " fill-opacity="1" fill-rule="evenodd"/><path fill="#001e36" d="M 318.941406 463.476562 C 473.703125 475.105469 429.414062 368.816406 395.859375 352.621094 C 377.652344 343.851562 340.828125 346.191406 318.273438 347.457031 Z M 318.941406 463.476562 " fill-opacity="1" fill-rule="evenodd"/><g clip-path="url(#cdc9316b9c)"><g transform="matrix(1, 0, 0, 1, 254, 426)"><g clip-path="url(#dd6942a945)"><g clip-path="url(#7024319330)"><path fill="#32aafc" d="M 0.410156 0.269531 L 8.914062 0.269531 L 8.914062 15.722656 L 0.410156 15.722656 Z M 0.410156 0.269531 " fill-opacity="1" fill-rule="nonzero"/></g></g></g></g></svg>