<svg xmlns="http://www.w3.org/2000/svg" xmlns:xlink="http://www.w3.org/1999/xlink" width="1280" zoomAndPan="magnify" viewBox="0 0 960 959.999988" height="1280" preserveAspectRatio="xMidYMid meet" version="1.0"><defs><clipPath id="b9f1fdff72"><path d="M 254.410156 426.269531 L 262.914062 426.269531 L 262.914062 441.722656 L 254.410156 441.722656 Z M 254.410156 426.269531 " clip-rule="nonzero"/></clipPath><clipPath id="4f4f1369ab"><path d="M 0.410156 0.269531 L 8.914062 0.269531 L 8.914062 15.722656 L 0.410156 15.722656 Z M 0.410156 0.269531 " clip-rule="nonzero"/></clipPath><clipPath id="7e1d35a5d5"><rect x="0" width="9" y="0" height="16"/></clipPath></defs><g clip-path="url(#b9f1fdff72)"><g transform="matrix(1, 0, 0, 1, 254, 426)"><g clip-path="url(#7e1d35a5d5)"><g clip-path="url(#4f4f1369ab)"><path fill="#32aafc" d="M 0.410156 0.269531 L 8.914062 0.269531 L 8.914062 15.722656 L 0.410156 15.722656 Z M 0.410156 0.269531 " fill-opacity="1" fill-rule="nonzero"/></g></g></g></g><path fill="#01005d" d="M 628.667969 509.328125 L 629.261719 659.375 L 555.429688 658.855469 L 555.316406 379.597656 L 628.667969 379.710938 L 628.855469 411.296875 C 641.796875 406.847656 670.796875 369.847656 725.570312 372.738281 L 725.496094 447.410156 C 692.527344 456.828125 628.667969 444.628906 628.667969 509.328125 Z M 323.171875 546.773438 C 314.011719 567.945312 321.355469 630.75 320.875 659.449219 L 243.664062 658.671875 L 243.851562 293.878906 C 339.304688 297.4375 467.984375 265.8125 500.617188 383.304688 C 515.082031 435.324219 499.875 478.554688 463.832031 513.257812 C 410.246094 564.792969 363.78125 531.3125 323.171875 546.773438 Z M 903.164062 757.738281 C 908.835938 727.742188 904.90625 405.328125 904.90625 346.191406 C 904.90625 285.351562 913.101562 203.488281 890.664062 152.953125 C 872.496094 112.019531 827.511719 72.164062 767.808594 67.046875 C 714.664062 62.449219 430.308594 66.453125 352.320312 66.453125 C 297.101562 66.492188 200.054688 59.335938 155.292969 78.761719 C 111.945312 97.597656 75.859375 137.972656 67.183594 194.625 C 61.507812 231.554688 65.589844 543.84375 65.515625 609.433594 C 65.476562 665.789062 57.914062 758.921875 80.570312 803.15625 C 100.597656 842.234375 146.617188 881.683594 204.578125 885.984375 C 268.175781 890.691406 533.882812 886.429688 619.324219 886.390625 C 732.6875 886.355469 874.015625 912.011719 903.164062 757.738281 Z M 903.164062 757.738281 " fill-opacity="1" fill-rule="evenodd"/><path fill="#9999fc" d="M 320.316406 362.320312 C 374.832031 352.753906 431.347656 364.582031 429.898438 420.308594 C 428.34375 479.519531 366.78125 482.261719 321.023438 476.921875 Z M 323.171875 546.773438 C 363.78125 531.3125 410.246094 564.792969 463.832031 513.257812 C 499.875 478.554688 515.082031 435.324219 500.617188 383.304688 C 467.984375 265.8125 339.304688 297.4375 243.851562 293.878906 L 243.664062 658.671875 L 320.875 659.449219 C 321.355469 630.75 314.011719 567.945312 323.171875 546.773438 Z M 323.171875 546.773438 " fill-opacity="1" fill-rule="evenodd"/><path fill="#9c9bfc" d="M 628.667969 509.328125 C 628.667969 444.628906 692.527344 456.828125 725.496094 447.410156 L 725.570312 372.738281 C 670.796875 369.847656 641.796875 406.847656 628.855469 411.296875 L 628.667969 379.710938 L 555.316406 379.597656 L 555.429688 658.855469 L 629.261719 659.375 Z M 628.667969 509.328125 " fill-opacity="1" fill-rule="evenodd"/><path fill="#02025e" d="M 321.023438 476.921875 C 366.78125 482.261719 428.34375 479.519531 429.898438 420.308594 C 431.347656 364.582031 374.832031 352.753906 320.316406 362.320312 Z M 321.023438 476.921875 " fill-opacity="1" fill-rule="evenodd"/></svg>