<svg xmlns="http://www.w3.org/2000/svg" xmlns:xlink="http://www.w3.org/1999/xlink" width="1280" zoomAndPan="magnify" viewBox="0 0 960 959.999988" height="1280" preserveAspectRatio="xMidYMid meet" version="1.0"><defs><clipPath id="e349404f26"><path d="M 384.46875 440.207031 L 390.394531 440.207031 L 390.394531 455.65625 L 384.46875 455.65625 Z M 384.46875 440.207031 " clip-rule="nonzero"/></clipPath><clipPath id="25a6a657b5"><path d="M 0.46875 0.207031 L 6.394531 0.207031 L 6.394531 15.65625 L 0.46875 15.65625 Z M 0.46875 0.207031 " clip-rule="nonzero"/></clipPath><clipPath id="d87c1af32a"><rect x="0" width="7" y="0" height="16"/></clipPath></defs><g clip-path="url(#e349404f26)"><g transform="matrix(1, 0, 0, 1, 384, 440)"><g clip-path="url(#d87c1af32a)"><g clip-path="url(#25a6a657b5)"><path fill="#985df6" d="M 0.46875 0.207031 L 6.394531 0.207031 L 6.394531 15.644531 L 0.46875 15.644531 Z M 0.46875 0.207031 " fill-opacity="1" fill-rule="nonzero"/></g></g></g></g><path fill="#cf649a" d="M 769.277344 529.164062 C 741.378906 529.328125 717.234375 536.015625 696.976562 545.980469 C 689.496094 531.183594 682.019531 518.265625 680.769531 508.613281 C 679.363281 497.40625 677.65625 490.554688 679.363281 477.164062 C 681.070312 463.773438 688.875 444.78125 688.875 443.222656 C 688.722656 441.816406 687.152344 434.964844 671.109375 434.816406 C 655.066406 434.667969 641.191406 437.929688 639.632812 442.140625 C 636.847656 449.925781 634.609375 457.871094 632.925781 465.96875 C 630.121094 480.601562 600.828125 532.453125 584.148438 559.707031 C 578.6875 549.121094 574.011719 539.777344 573.078125 532.304688 C 571.667969 521.09375 569.960938 514.246094 571.667969 500.855469 C 573.378906 487.464844 581.179688 468.472656 581.179688 466.914062 C 581.03125 465.507812 579.460938 458.65625 563.417969 458.507812 C 547.375 458.355469 533.5 461.621094 531.941406 465.832031 C 530.382812 470.039062 528.660156 480.003906 525.234375 489.65625 C 521.957031 499.308594 483 585.886719 472.875 608.457031 C 467.726562 619.976562 463.214844 629.167969 459.9375 635.398438 C 456.660156 641.625 459.789062 635.871094 459.476562 636.492188 L 455.113281 644.75 L 455.113281 644.902344 C 452.929688 648.800781 450.585938 652.535156 449.503906 652.535156 C 448.730469 652.535156 447.160156 642.097656 449.816406 627.773438 C 455.585938 597.71875 469.609375 550.851562 469.449219 549.144531 C 469.449219 548.371094 472.105469 540.113281 460.410156 535.902344 C 449.03125 531.695312 444.976562 538.707031 444.042969 538.707031 C 443.109375 538.707031 442.324219 541.199219 442.324219 541.199219 C 442.324219 541.199219 454.949219 488.410156 418.164062 488.410156 C 395.101562 488.410156 363.3125 513.484375 347.570312 536.363281 L 268.085938 579.808594 L 266.367188 577.941406 C 221.824219 530.410156 139.386719 496.78125 142.816406 432.949219 C 144.0625 409.742188 152.164062 348.550781 301.132812 274.441406 C 423.148438 213.722656 520.871094 230.375 537.863281 267.429688 C 562.019531 320.363281 485.65625 418.761719 358.800781 432.960938 C 310.496094 438.417969 285.089844 419.71875 278.695312 412.71875 C 271.988281 405.398438 271.054688 405.085938 268.558594 406.492188 C 264.507812 408.671875 267 415.210938 268.558594 419.109375 C 272.300781 428.925781 287.882812 446.363281 314.371094 455.082031 C 337.597656 462.714844 394.316406 466.914062 462.890625 440.445312 C 539.71875 410.703125 599.71875 328.1875 582.101562 259.222656 C 564.175781 188.996094 447.621094 165.957031 337.433594 205.039062 C 271.839844 228.367188 200.90625 264.789062 149.796875 312.59375 C 88.902344 369.265625 79.238281 418.785156 83.277344 439.335938 C 97.464844 512.675781 198.589844 560.480469 239.101562 595.828125 L 233.492188 598.941406 C 213.234375 608.90625 136.097656 649.234375 116.773438 691.894531 C 94.960938 740.160156 120.203125 774.886719 137.03125 779.554688 C 189.078125 794.042969 242.367188 768.035156 271.203125 725.214844 C 299.875 682.390625 296.445312 626.816406 283.207031 601.433594 L 282.734375 600.496094 L 298.628906 591.15625 C 308.914062 585.078125 319.046875 579.472656 327.921875 574.652344 C 322.9375 588.203125 319.347656 604.234375 317.476562 627.589844 C 315.292969 654.988281 326.515625 690.488281 341.324219 704.511719 C 347.867188 710.589844 355.660156 710.738281 360.496094 710.738281 C 377.636719 710.738281 385.429688 696.566406 394.003906 679.601562 C 404.601562 658.886719 413.949219 634.910156 413.949219 634.910156 C 413.949219 634.910156 402.257812 699.839844 434.207031 699.839844 C 445.898438 699.839844 457.582031 684.734375 462.878906 676.949219 L 462.878906 677.097656 C 462.878906 677.097656 463.191406 676.625 463.8125 675.542969 C 465.058594 673.671875 465.683594 672.578125 465.683594 672.578125 L 465.683594 672.265625 C 470.359375 664.167969 480.804688 645.636719 496.386719 614.972656 C 516.496094 575.425781 535.816406 525.914062 535.816406 525.914062 C 535.816406 525.914062 537.6875 538.058594 543.457031 557.988281 C 546.886719 569.820312 554.367188 582.75 560.136719 595.355469 L 552.660156 605.628906 L 552.808594 605.792969 C 548.820312 611.074219 544.714844 616.261719 540.492188 621.359375 C 524.597656 640.355469 505.585938 662.003906 503.09375 668.230469 C 500.128906 675.554688 500.75 680.996094 506.523438 685.355469 C 510.734375 688.46875 518.214844 689.09375 526.15625 688.46875 C 540.492188 687.535156 550.464844 683.949219 555.449219 681.769531 C 564.492188 678.546875 572.90625 674.136719 580.695312 668.527344 C 596.277344 657.007812 605.789062 640.652344 604.855469 618.855469 C 604.378906 606.863281 600.492188 595.03125 595.652344 583.820312 L 599.867188 577.59375 C 624.488281 541.621094 643.5 502.074219 643.5 502.074219 C 643.5 502.074219 645.367188 514.21875 651.140625 534.148438 C 654.105469 544.273438 660.027344 555.320312 665.324219 566.21875 C 642.265625 585.066406 627.765625 606.863281 622.78125 621.1875 C 613.578125 647.652344 620.746094 659.648438 634.3125 662.449219 C 640.394531 663.695312 649.121094 660.894531 655.664062 658.089844 C 663.769531 655.4375 673.589844 650.929688 682.628906 644.226562 C 698.210938 632.707031 713.171875 616.664062 712.398438 595.03125 C 711.921875 585.066406 709.28125 575.25 705.691406 565.910156 C 725.324219 557.8125 750.730469 553.140625 782.980469 557.027344 C 852.328125 565.125 866.039062 608.40625 863.382812 626.46875 C 860.730469 644.527344 846.242188 654.492188 841.40625 657.605469 C 836.570312 660.570312 835.011719 661.652344 835.484375 663.832031 C 836.109375 667.109375 838.289062 666.945312 842.503906 666.324219 C 848.277344 665.390625 878.96875 651.527344 880.214844 618.210938 C 882.082031 575.386719 841.40625 528.679688 769.265625 529.152344 Z M 234.441406 709.332031 C 211.527344 734.40625 179.277344 743.894531 165.566406 735.800781 C 150.757812 727.230469 156.527344 690.339844 184.738281 663.707031 C 201.878906 647.515625 224.167969 632.570312 238.816406 623.378906 L 253.003906 614.808594 C 253.9375 614.1875 254.5625 613.875 254.5625 613.875 C 255.65625 613.25 256.90625 612.46875 258.152344 611.695312 C 268.597656 649.683594 258.625 683 234.464844 709.320312 Z M 401.984375 595.515625 C 394.03125 614.984375 377.199219 664.953125 367.078125 662.152344 C 358.351562 659.808594 353.054688 621.984375 365.359375 584.605469 C 371.589844 565.757812 384.84375 543.339844 392.632812 534.621094 C 405.261719 520.609375 418.972656 515.9375 422.402344 521.691406 C 426.453125 529.164062 406.96875 583.347656 401.984375 595.503906 Z M 540.207031 661.527344 C 536.777344 663.246094 533.660156 664.492188 532.25 663.558594 C 531.15625 662.9375 533.660156 660.59375 533.660156 660.59375 C 533.660156 660.59375 550.964844 642.0625 557.820312 633.503906 L 571.382812 616.214844 L 571.382812 618.085938 C 571.382812 640.503906 549.878906 655.449219 540.21875 661.527344 Z M 646.789062 637.242188 C 644.296875 635.371094 644.605469 629.605469 653.023438 611.546875 C 656.300781 604.382812 663.78125 592.390625 676.707031 581.03125 C 678.265625 585.699219 679.199219 590.222656 679.050781 594.417969 C 678.890625 622.445312 658.941406 632.882812 646.789062 637.242188 Z M 646.789062 637.242188 " fill-opacity="1" fill-rule="nonzero"/></svg>